<?xml version="1.0" encoding="UTF-8"?>
<svg width="52px" height="47px" viewBox="0 0 52 47" version="1.1" xmlns="http://www.w3.org/2000/svg" xmlns:xlink="http://www.w3.org/1999/xlink">
    <!-- Generator: Sketch 52.6 (67491) - http://www.bohemiancoding.com/sketch -->
    <title>Untitled</title>
    <desc>Created with Sketch.</desc>
    <g id="Page-1" stroke="none" stroke-width="1" fill="none" fill-rule="evenodd">
        <g id="openshift-icon">
            <path d="M51.22782,11.986615 C50.65532,10.804115 49.99282,9.6628646 49.22407,8.5866146 L41.01157,11.575365 C41.96657,12.552865 42.76907,13.651615 43.42532,14.826615 L51.22782,11.986615 Z M14.92495,21.069995 L6.70995,24.058745 C6.81495,25.376245 7.04245,26.677495 7.3612,27.952495 L15.16495,25.111245 C14.9112,23.791245 14.8212,22.431245 14.92495,21.069995 Z" id="path44560" fill="#090A0C" fill-rule="nonzero"></path>
            <path d="M33.1562,9.6601146 C34.86495,10.457615 36.34495,11.545115 37.5937,12.820115 L45.8062,9.8313646 C43.5312,6.6388646 40.43245,3.9713646 36.6362,2.2001146 C24.89495,-3.2748854 10.88745,1.8226146 5.4137,13.562615 C3.6412,17.361365 2.98245,21.396365 3.29245,25.303865 L11.5062,22.315115 C11.64245,20.535115 12.0762,18.751365 12.87245,17.041365 C16.42995,9.4138646 25.5287,6.1038646 33.1562,9.6601146" id="path44564" fill="#212429"></path>
            <path d="M41.91582,24.668245 C41.78457,26.446995 41.33582,28.230745 40.53707,29.941995 C36.98082,37.570745 27.88082,40.880745 20.25457,37.324495 C18.54332,36.525745 17.05207,35.446995 15.80832,34.169495 L7.61207,37.151995 C9.88207,40.344495 12.97707,43.013245 16.77582,44.785745 C28.51707,50.259495 42.52207,45.161995 47.99707,33.420745 C49.77082,29.624495 50.42457,25.589495 50.11207,21.685745 L41.91582,24.668245 Z" id="path44572" fill="#212429"></path>
            <path d="M43.93545,14.641115 L36.1317,17.481115 C37.5817,20.078615 38.2667,23.068615 38.0417,26.076115 L46.23795,23.094865 C46.00295,20.153615 45.2192,17.282365 43.93545,14.641115 M7.8727,27.765115 L0.06895,30.607615 C0.7852,33.452615 2.02895,36.156365 3.73895,38.562615 L11.93395,35.578865 C9.8302,33.418865 8.43145,30.685115 7.8727,27.765115" id="path44576" fill="#212429" fill-rule="nonzero"></path>
            <path d="M50.03832,9.8229946 C49.77957,9.4029946 49.51082,8.9892446 49.22457,8.5867446 L41.01207,11.575495 C41.37332,11.945495 41.70582,12.337995 42.02332,12.740495 L50.03832,9.8229946 Z M14.89357,22.719365 C14.87357,22.171865 14.88227,21.621865 14.92477,21.070615 L6.70977,24.059365 C6.75227,24.585615 6.81852,25.108115 6.89727,25.629365 L14.89352,22.719365 L14.89357,22.719365 Z" id="path44584" fill="#000000" fill-rule="nonzero"></path>
            <path d="M50.11157,21.685615 L41.91532,24.668115 C41.82902,25.848115 41.59907,27.030615 41.22282,28.193115 L50.14407,24.940615 C50.20787,23.850615 50.19777,22.763115 50.11157,21.685615 Z M7.61282,37.153115 C8.24407,38.041865 8.94282,38.889365 9.70157,39.689365 L18.62407,36.435615 C17.58157,35.783115 16.63907,35.021865 15.80782,34.169365 L7.61282,37.153115 Z" id="path44588" fill="#090A0C" fill-rule="nonzero"></path>
        </g>
    </g>
</svg>