<?xml version="1.0" encoding="UTF-8"?>
<svg width="66px" height="65px" viewBox="0 0 66 65" version="1.1" xmlns="http://www.w3.org/2000/svg" xmlns:xlink="http://www.w3.org/1999/xlink">
    <!-- Generator: Sketch 52.6 (67491) - http://www.bohemiancoding.com/sketch -->
    <title>Untitled 2</title>
    <desc>Created with Sketch.</desc>
    <g id="Page-1" stroke="none" stroke-width="1" fill="none" fill-rule="evenodd">
        <g id="spring-icon" fill="#212429" fill-rule="nonzero">
            <path d="M59.2,4.365 C58.3036365,6.5141776 57.1559827,8.54967709 55.781,10.429 C47.6119018,2.22578928 35.6579702,-0.942050348 24.4984948,2.13901112 C13.3390193,5.2200726 4.70379453,14.0724497 1.90078595,25.3049906 C-0.902222635,36.5375315 2.56147037,48.409116 10.965,56.372 L12.151,57.419 C21.3794387,65.1949462 34.1909641,67.1340776 45.3072277,62.437472 C56.4234913,57.7408665 63.9635888,47.2032035 64.821,35.166 C65.696,26.996 63.297,16.656 59.201,4.366 L59.2,4.365 Z M15.53,56.558 C14.8315988,57.4209628 13.6820255,57.7780756 12.6175868,57.4627357 C11.5531481,57.1473958 10.7835944,56.2217417 10.6679432,55.1176159 C10.5522919,54.0134901 11.1133325,52.9484634 12.0893244,52.4193993 C13.0653164,51.8903353 14.2639379,52.0014873 15.126,52.701 C16.3017143,53.6550231 16.4825071,55.3810572 15.53,56.558 Z M59.068,46.948 C51.148,57.498 34.238,53.938 23.396,54.45 C23.396,54.45 21.474,54.563 19.539,54.88 C19.539,54.88 20.269,54.57 21.202,54.217 C28.816,51.567 32.415,51.057 37.04,48.677 C45.748,44.25 54.362,34.555 56.152,24.477 C52.839,34.172 42.779,42.509 33.622,45.895 C27.346,48.208 16.008,50.461 16.008,50.461 L15.551,50.216 C7.837,46.466 7.599,29.759 21.628,24.371 C27.771,22.005 33.648,23.304 40.282,21.721 C47.366,20.038 55.562,14.731 58.897,7.805 C62.627,18.885 67.121,36.227 59.063,46.955 L59.068,46.948 Z" id="Shape"></path>
        </g>
    </g>
</svg>